<svg width="31" height="35" viewBox="0 0 31 35" fill="none" xmlns="http://www.w3.org/2000/svg">
<path fill-rule="evenodd" clip-rule="evenodd" d="M15.2891 2.66957C15.2892 2.6697 15.289 2.66945 15.2891 2.66957ZM15.4792 2.87447L28.1349 16.5116H25.3336C24.091 16.5116 23.0836 17.519 23.0836 18.7616V31.7497H8.91694V18.7616C8.91694 17.519 7.90958 16.5116 6.66694 16.5116H3.72755L15.4792 2.87447ZM13.7679 1.03072C14.6438 0.0143161 16.2089 -0.0144932 17.1216 0.96898L30.3572 15.2311C31.6934 16.6709 30.6723 19.0116 28.708 19.0116H25.5836V31.9997C25.5836 33.2423 24.5763 34.2497 23.3336 34.2497H8.66694C7.4243 34.2497 6.41694 33.2423 6.41694 31.9997V19.0116H3.18209C1.257 19.0116 0.22094 16.7511 1.47764 15.2928L13.7679 1.03072Z" fill="black"/>
<path d="M14.4884 2.74543C15.286 1.82451 16.7146 1.82451 17.5121 2.74543L28.7228 15.6904C29.8445 16.9857 28.9244 18.9997 27.2109 18.9997H4.78961C3.07611 18.9997 2.15601 16.9857 3.27776 15.6904L14.4884 2.74543Z" fill="black"/>
</svg>
